<svg xmlns="http://www.w3.org/2000/svg" viewBox="0 0 64 64">
  <g stroke="#8B4500" stroke-width="2" stroke-linecap="round" stroke-linejoin="round">

    <g transform="translate(4, 28)">
      <path d="M0,6 L0,22 C0,25.3 5.3,28 12,28 C18.7,28 24,25.3 24,22 L24,6" fill="#FFC107"/>
      <path d="M0,14 C0,17.3 5.3,20 12,20 C18.7,20 24,17.3 24,14" fill="none"/>
      <ellipse cx="12" cy="6" rx="12" ry="6" fill="#FFEB3B"/>
    </g>

    <g transform="translate(36, 36)">
      <path d="M0,6 L0,16 C0,19.3 5.3,22 12,22 C18.7,22 24,19.3 24,16 L24,6" fill="#FFC107"/>
      <path d="M0,11 C0,14.3 5.3,17 12,17 C18.7,17 24,14.3 24,11" fill="none"/>
      <ellipse cx="12" cy="6" rx="12" ry="6" fill="#FFEB3B"/>
    </g>

    <g transform="translate(16, 16)">
      <path d="M0,8 L0,36 C0,40.4 7.2,44 16,44 C24.8,44 32,40.4 32,36 L32,8" fill="#FFCA28"/>
      <path d="M0,17 C0,21.4 7.2,25 16,25 C24.8,25 32,21.4 32,17" fill="none"/>
      <path d="M0,26 C0,30.4 7.2,34 16,34 C24.8,34 32,30.4 32,26" fill="none"/>
      <ellipse cx="16" cy="8" rx="16" ry="8" fill="#FFF176"/>
      <path d="M8,6 Q16,10 24,6" stroke="#FFFFFF" stroke-width="2" fill="none" opacity="0.6"/>
    </g>

  </g>
</svg>